<svg xmlns="http://www.w3.org/2000/svg" version="1.1" xmlns:xlink="http://www.w3.org/1999/xlink" xmlns:svgjs="http://svgjs.dev/svgjs" width="1000" height="999" viewBox="0 0 1000 999"><g transform="matrix(1,0,0,1,-0.215743440233382,-0.21552769679306039)"><svg viewBox="0 0 343 343" data-background-color="#ffffff" preserveAspectRatio="xMidYMid meet" height="999" width="1000" xmlns="http://www.w3.org/2000/svg" xmlns:xlink="http://www.w3.org/1999/xlink"><g id="tight-bounds" transform="matrix(1,0,0,1,0.0740000000000407,0.07400000000001228)"><svg viewBox="0 0 342.85155851775386 342.85155851775386" height="342.85155851775386" width="342.85155851775386"><g><svg></svg></g><g><svg viewBox="0 0 342.85155851775386 342.85155851775386" height="342.85155851775386" width="342.85155851775386"><g><path d="M0 171.426c0-94.676 76.75-171.426 171.426-171.426 94.676 0 171.426 76.75 171.426 171.426 0 94.676-76.75 171.426-171.426 171.426-94.676 0-171.426-76.75-171.426-171.426zM171.426 335.271c90.489 0 163.845-73.356 163.845-163.845 0-90.489-73.356-163.845-163.845-163.845-90.489 0-163.845 73.356-163.845 163.845 0 90.489 73.356 163.845 163.845 163.845z" data-fill-palette-color="tertiary" fill="#1a82dc" stroke="transparent"></path><ellipse rx="164.56874808852186" ry="164.56874808852186" cx="171.42577925887693" cy="171.42577925887693" fill="#1a82dc" stroke="transparent" stroke-width="0" fill-opacity="1" data-fill-palette-color="tertiary"></ellipse></g><g transform="matrix(1,0,0,1,64.84655864529837,129.39350775489362)"><svg viewBox="0 0 213.1584412271571 84.06454300796662" height="84.06454300796662" width="213.1584412271571"><g><svg viewBox="0 0 213.1584412271571 84.06454300796662" height="84.06454300796662" width="213.1584412271571"><g><svg viewBox="0 0 213.1584412271571 84.06454300796662" height="84.06454300796662" width="213.1584412271571"><g><svg viewBox="0 0 213.1584412271571 84.06454300796662" height="84.06454300796662" width="213.1584412271571"><g><svg viewBox="0 0 213.1584412271571 84.06454300796662" height="84.06454300796662" width="213.1584412271571"><g><svg viewBox="0 0 213.1584412271571 84.06454300796662" height="84.06454300796662" width="213.1584412271571"><g transform="matrix(1,0,0,1,0,0)"><svg width="213.1584412271571" viewBox="0.5 -28.75 72.9000015258789 28.75" height="84.06454300796662" data-palette-color="#ffff00"><path d="M6.2-28.75L6.2-28.75 16.5-11.5 16.5 0 0.5-26.9 6.2-28.75ZM29.3-28.75L29.3-28.75 18.95-11.5 18.95 0 34.95-26.9 29.3-28.75ZM38.95-14.75L38.95-25.3 44.65-28.75 54.95-28.75 54.95-22.85 45.05-22.85 45.05-17.2 54.95-17.2 54.95-11.35 44.65-11.35 38.95-14.75ZM73.4-3.4L73.4-13.75 67.5-17.2 57.2-17.2 57.2-11.35 67.1-11.35 67.1-5.65 57.4-5.65 57.4 0 67.5 0 73.4-3.4ZM38.95-9.1L45.25-9.1 45.25-5.65 54.95-5.65 54.95 0 44.8 0 38.95-3.4 38.95-9.1ZM67.1-19.45L73.4-19.45 73.4-25.3 67.5-28.75 57.2-28.75 57.2-22.85 67.1-22.85 67.1-19.45Z" opacity="1" transform="matrix(1,0,0,1,0,0)" fill="#ffff00" class="undefined-text-0" data-fill-palette-color="quaternary" id="text-0"></path></svg></g></svg></g></svg></g></svg></g><g></g></svg></g></svg></g></svg></g></svg></g><defs></defs></svg><rect width="342.85155851775386" height="342.85155851775386" fill="none" stroke="none" visibility="hidden"></rect></g></svg></g></svg>